<?xml version="1.0" encoding="utf-8"?>
<!-- Generator: Adobe Illustrator 23.0.1, SVG Export Plug-In . SVG Version: 6.00 Build 0)  -->
<svg version="1.1" id="Layer_1" xmlns="http://www.w3.org/2000/svg" xmlns:xlink="http://www.w3.org/1999/xlink" x="0px" y="0px"
	 viewBox="0 0 280.09 59.03" style="enable-background:new 0 0 280.09 59.03;" xml:space="preserve">
<style type="text/css">
	.st0{fill:none;stroke:#020202;stroke-miterlimit:10;}
	.st1{fill:#878787;}
	.st2{fill:#FFFFFF;}
</style>
<g>
	<g>
		<path d="M105.64,20.32l-9.21,25.13H90.3l-9.22-25.13h5.4L93.4,40.3l6.88-19.98H105.64z"/>
		<path d="M109,22.28c-0.59-0.56-0.88-1.27-0.88-2.11c0-0.84,0.29-1.54,0.88-2.11c0.59-0.56,1.33-0.85,2.21-0.85
			c0.89,0,1.63,0.28,2.21,0.85c0.59,0.56,0.88,1.27,0.88,2.11c0,0.84-0.29,1.54-0.88,2.11c-0.59,0.56-1.33,0.85-2.21,0.85
			C110.33,23.13,109.59,22.85,109,22.28z M113.7,25.51v19.94h-5.04V25.51H113.7z"/>
		<path d="M118.63,30.06c0.84-1.55,2-2.75,3.49-3.6c1.49-0.85,3.19-1.28,5.11-1.28c2.47,0,4.52,0.62,6.14,1.85
			c1.62,1.24,2.71,2.97,3.26,5.2h-5.44c-0.29-0.86-0.77-1.54-1.46-2.03c-0.68-0.49-1.53-0.74-2.54-0.74c-1.44,0-2.58,0.52-3.42,1.57
			s-1.26,2.53-1.26,4.45c0,1.9,0.42,3.37,1.26,4.41s1.98,1.57,3.42,1.57c2.04,0,3.37-0.91,4-2.74h5.44
			c-0.55,2.16-1.64,3.88-3.28,5.15c-1.63,1.27-3.67,1.91-6.12,1.91c-1.92,0-3.62-0.43-5.11-1.28c-1.49-0.85-2.65-2.05-3.49-3.6
			c-0.84-1.55-1.26-3.35-1.26-5.42C117.38,33.41,117.79,31.61,118.63,30.06z"/>
		<path d="M146.21,29.65v9.65c0,0.67,0.16,1.16,0.49,1.46c0.32,0.3,0.87,0.45,1.64,0.45h2.34v4.25h-3.17
			c-4.25,0-6.37-2.06-6.37-6.19v-9.61h-2.38v-4.14h2.38v-4.93h5.08v4.93h4.46v4.14H146.21z"/>
		<path d="M157.98,44.5c-1.54-0.85-2.74-2.06-3.62-3.62s-1.31-3.36-1.31-5.4c0-2.04,0.45-3.84,1.35-5.4
			c0.9-1.56,2.13-2.77,3.69-3.62c1.56-0.85,3.3-1.28,5.22-1.28c1.92,0,3.66,0.43,5.22,1.28c1.56,0.85,2.79,2.06,3.69,3.62
			c0.9,1.56,1.35,3.36,1.35,5.4c0,2.04-0.46,3.84-1.39,5.4c-0.92,1.56-2.17,2.77-3.74,3.62c-1.57,0.85-3.33,1.28-5.27,1.28
			C161.25,45.77,159.52,45.35,157.98,44.5z M165.74,40.72c0.8-0.44,1.45-1.11,1.93-2c0.48-0.89,0.72-1.97,0.72-3.24
			c0-1.9-0.5-3.35-1.49-4.37c-1-1.02-2.21-1.53-3.65-1.53c-1.44,0-2.65,0.51-3.62,1.53c-0.97,1.02-1.46,2.48-1.46,4.37
			c0,1.9,0.47,3.35,1.42,4.37c0.95,1.02,2.14,1.53,3.58,1.53C164.08,41.38,164.93,41.16,165.74,40.72z"/>
		<path d="M184.85,26.12c1.04-0.6,2.24-0.9,3.58-0.9v5.29h-1.33c-1.58,0-2.78,0.37-3.58,1.12c-0.8,0.74-1.21,2.04-1.21,3.89v9.94
			h-5.04V25.51h5.04v3.1C182.96,27.55,183.81,26.72,184.85,26.12z"/>
		<path d="M217.88,27.88c-0.58-1.06-1.37-1.86-2.38-2.41c-1.01-0.55-2.18-0.83-3.53-0.83c-1.49,0-2.81,0.34-3.96,1.01
			c-1.15,0.67-2.05,1.63-2.7,2.88c-0.65,1.25-0.97,2.69-0.97,4.32c0,1.68,0.33,3.14,0.99,4.39c0.66,1.25,1.58,2.21,2.75,2.88
			c1.17,0.67,2.54,1.01,4.1,1.01c1.92,0,3.49-0.51,4.72-1.53c1.22-1.02,2.03-2.44,2.41-4.27h-8.64v-3.85h13.61v4.39
			c-0.34,1.75-1.06,3.37-2.16,4.86c-1.1,1.49-2.53,2.68-4.27,3.58c-1.74,0.9-3.69,1.35-5.85,1.35c-2.42,0-4.61-0.55-6.57-1.64
			c-1.96-1.09-3.49-2.61-4.61-4.55c-1.12-1.94-1.67-4.15-1.67-6.62c0-2.47,0.56-4.69,1.67-6.64c1.12-1.96,2.65-3.48,4.61-4.57
			c1.96-1.09,4.13-1.64,6.53-1.64c2.83,0,5.29,0.69,7.38,2.07c2.09,1.38,3.53,3.32,4.32,5.81H217.88z"/>
		<path d="M231.71,44.5c-1.54-0.85-2.74-2.06-3.62-3.62s-1.31-3.36-1.31-5.4c0-2.04,0.45-3.84,1.35-5.4
			c0.9-1.56,2.13-2.77,3.69-3.62c1.56-0.85,3.3-1.28,5.22-1.28c1.92,0,3.66,0.43,5.22,1.28c1.56,0.85,2.79,2.06,3.69,3.62
			c0.9,1.56,1.35,3.36,1.35,5.4c0,2.04-0.46,3.84-1.39,5.4c-0.92,1.56-2.17,2.77-3.74,3.62c-1.57,0.85-3.33,1.28-5.27,1.28
			C234.97,45.77,233.24,45.35,231.71,44.5z M239.47,40.72c0.8-0.44,1.45-1.11,1.93-2c0.48-0.89,0.72-1.97,0.72-3.24
			c0-1.9-0.5-3.35-1.49-4.37c-1-1.02-2.21-1.53-3.65-1.53c-1.44,0-2.65,0.51-3.62,1.53c-0.97,1.02-1.46,2.48-1.46,4.37
			c0,1.9,0.47,3.35,1.42,4.37c0.95,1.02,2.14,1.53,3.58,1.53C237.8,41.38,238.66,41.16,239.47,40.72z"/>
		<path d="M269.83,25.51v19.94h-5.08v-2.52c-0.65,0.86-1.49,1.54-2.54,2.03s-2.18,0.74-3.4,0.74c-1.56,0-2.94-0.33-4.14-0.99
			c-1.2-0.66-2.14-1.63-2.83-2.92c-0.68-1.28-1.03-2.81-1.03-4.59v-11.7h5.04v10.98c0,1.58,0.4,2.8,1.19,3.65
			c0.79,0.85,1.87,1.28,3.24,1.28c1.39,0,2.48-0.43,3.28-1.28c0.79-0.85,1.19-2.07,1.19-3.65V25.51H269.83z"/>
		<path d="M274.78,44.85c-0.59-0.56-0.88-1.27-0.88-2.11c0-0.84,0.29-1.54,0.88-2.11c0.59-0.56,1.34-0.85,2.25-0.85
			c0.89,0,1.62,0.28,2.2,0.85c0.58,0.56,0.86,1.27,0.86,2.11c0,0.84-0.29,1.54-0.86,2.11c-0.58,0.56-1.31,0.85-2.2,0.85
			C276.12,45.7,275.37,45.42,274.78,44.85z"/>
	</g>
	<g>
		<path d="M58.75,25.47h-14.7c-0.96,0-1.85,0.54-2.29,1.4l-9.74,18.98h-7.49c-1.38,0-2.56-1-2.78-2.36l-3.51-22.03h6.46
			c0.95,0,1.76,0.71,1.87,1.65l1.86,15.14l7.21-15.2c0.46-0.96,1.43-1.58,2.5-1.58h19.76C54.27,8.58,42.13-0.7,27.94,0.04
			C13.14,0.81,1.03,12.75,0.06,27.54c-1.12,17.2,12.49,31.5,29.45,31.5c16.3,0,29.52-13.21,29.52-29.52
			C59.03,28.14,58.94,26.79,58.75,25.47z"/>
	</g>
</g>
</svg>
