<?xml version="1.0" encoding="utf-8"?>
<!-- Generator: Adobe Illustrator 23.0.1, SVG Export Plug-In . SVG Version: 6.00 Build 0)  -->
<svg version="1.1" id="Layer_1" xmlns="http://www.w3.org/2000/svg" xmlns:xlink="http://www.w3.org/1999/xlink" x="0px" y="0px"
	 viewBox="0 0 59.03 59.03" style="enable-background:new 0 0 59.03 59.03;" xml:space="preserve">
<style type="text/css">
	.st0{fill:none;stroke:#020202;stroke-miterlimit:10;}
	.st1{fill:#878787;}
	.st2{fill:#FFFFFF;}
</style>
<g>
	<path d="M58.75,25.47h-14.7c-0.96,0-1.85,0.54-2.29,1.4l-9.74,18.98h-7.49c-1.38,0-2.56-1-2.78-2.36l-3.51-22.03h6.46
		c0.95,0,1.76,0.71,1.87,1.65l1.86,15.14l7.21-15.2c0.46-0.96,1.43-1.58,2.5-1.58h19.76C54.27,8.58,42.13-0.7,27.94,0.04
		C13.14,0.81,1.03,12.75,0.06,27.54c-1.12,17.2,12.49,31.5,29.45,31.5c16.3,0,29.52-13.21,29.52-29.52
		C59.03,28.14,58.94,26.79,58.75,25.47z"/>
</g>
</svg>
